<svg version="1.1" id="Layer_1" xmlns="http://www.w3.org/2000/svg" xmlns:xlink="http://www.w3.org/1999/xlink" x="0px" y="0px"
	 width="100%" viewBox="0 0 1600 1600" enable-background="new 0 0 1600 1600" xml:space="preserve">
<path fill="#000000" opacity="1.000000" stroke="none" 
	d="
M1087.000000,1601.000000 
	C724.666748,1601.000000 362.833557,1601.000000 1.000243,1601.000000 
	C1.000162,1067.666992 1.000162,534.333862 1.000081,1.000600 
	C534.332947,1.000400 1067.665894,1.000400 1600.999023,1.000200 
	C1600.999390,534.332764 1600.999390,1067.665527 1600.999756,1600.999146 
	C1429.833374,1601.000000 1258.666626,1601.000000 1087.000000,1601.000000 
M367.571655,344.998749 
	C364.315796,344.998749 361.059937,344.998749 357.000793,344.998749 
	C472.814026,513.643372 588.131226,681.565674 703.676453,849.820007 
	C588.308533,983.986267 472.975037,1118.112427 356.984802,1253.002441 
	C383.143402,1253.002441 407.959351,1253.051636 432.773926,1252.890381 
	C434.400452,1252.879639 436.443726,1251.630981 437.573029,1250.332031 
	C453.399231,1232.129517 469.100037,1213.817871 484.831543,1195.532959 
	C513.460510,1162.257080 542.103210,1128.992920 570.715393,1095.702515 
	C615.834290,1043.206299 660.931885,990.691650 706.040710,938.186707 
	C716.762756,925.706482 727.493347,913.233521 738.448730,900.491211 
	C740.278564,903.151978 741.872192,905.466553 743.463074,907.783020 
	C796.094116,984.418274 848.727051,1061.052124 901.354614,1137.689697 
	C926.767517,1174.696655 952.205505,1211.686523 977.514465,1248.764526 
	C979.709900,1251.980835 982.085327,1253.098267 985.974976,1253.092773 
	C1070.969971,1252.974365 1155.965210,1253.002197 1240.960327,1253.002075 
	C1242.035522,1253.002075 1243.110718,1253.002197 1245.000854,1253.002197 
	C1124.852539,1078.052246 1005.217834,903.850281 885.469360,729.482605 
	C995.574341,601.425964 1105.462158,473.621857 1215.458252,345.691742 
	C1214.617554,345.289917 1214.346924,345.047577 1214.076172,345.047272 
	C1189.411377,345.019745 1164.746338,344.970886 1140.082275,345.093323 
	C1138.501343,345.101196 1136.451660,346.033997 1135.422729,347.228210 
	C1124.489990,359.917389 1113.802734,372.818054 1102.890015,385.524780 
	C1059.793091,435.706116 1016.635071,485.834900 973.508545,535.990723 
	C939.995178,574.966492 906.498535,613.956604 872.986206,652.933289 
	C865.642212,661.474792 858.263123,669.986145 850.740967,678.695740 
	C849.879944,677.503418 849.290344,676.720764 848.735718,675.914062 
	C828.847717,646.987793 808.980225,618.047485 789.073853,589.133911 
	C755.397034,540.218811 721.652527,491.350250 688.020691,442.404236 
	C666.641724,411.290375 645.373779,380.099854 624.187500,348.854584 
	C622.183044,345.898438 620.090698,344.905823 616.536987,344.910706 
	C533.875183,345.024292 451.213165,344.998535 367.571655,344.998749 
z"/>
<path fill="#FEFEFE" opacity="1.000000" stroke="none" 
	d="
M368.061432,344.998627 
	C451.213165,344.998535 533.875183,345.024292 616.536987,344.910706 
	C620.090698,344.905823 622.183044,345.898438 624.187500,348.854584 
	C645.373779,380.099854 666.641724,411.290375 688.020691,442.404236 
	C721.652527,491.350250 755.397034,540.218811 789.073853,589.133911 
	C808.980225,618.047485 828.847717,646.987793 848.735718,675.914062 
	C849.290344,676.720764 849.879944,677.503418 850.740967,678.695740 
	C858.263123,669.986145 865.642212,661.474792 872.986206,652.933289 
	C906.498535,613.956604 939.995178,574.966492 973.508545,535.990723 
	C1016.635071,485.834900 1059.793091,435.706116 1102.890015,385.524780 
	C1113.802734,372.818054 1124.489990,359.917389 1135.422729,347.228210 
	C1136.451660,346.033997 1138.501343,345.101196 1140.082275,345.093323 
	C1164.746338,344.970886 1189.411377,345.019745 1214.076172,345.047272 
	C1214.346924,345.047577 1214.617554,345.289917 1215.458252,345.691742 
	C1105.462158,473.621857 995.574341,601.425964 885.469360,729.482605 
	C1005.217834,903.850281 1124.852539,1078.052246 1245.000854,1253.002197 
	C1243.110718,1253.002197 1242.035522,1253.002075 1240.960327,1253.002075 
	C1155.965210,1253.002197 1070.969971,1252.974365 985.974976,1253.092773 
	C982.085327,1253.098267 979.709900,1251.980835 977.514465,1248.764526 
	C952.205505,1211.686523 926.767517,1174.696655 901.354614,1137.689697 
	C848.727051,1061.052124 796.094116,984.418274 743.463074,907.783020 
	C741.872192,905.466553 740.278564,903.151978 738.448730,900.491211 
	C727.493347,913.233521 716.762756,925.706482 706.040710,938.186707 
	C660.931885,990.691650 615.834290,1043.206299 570.715393,1095.702515 
	C542.103210,1128.992920 513.460510,1162.257080 484.831543,1195.532959 
	C469.100037,1213.817871 453.399231,1232.129517 437.573029,1250.332031 
	C436.443726,1251.630981 434.400452,1252.879639 432.773926,1252.890381 
	C407.959351,1253.051636 383.143402,1253.002441 356.984802,1253.002441 
	C472.975037,1118.112427 588.308533,983.986267 703.676453,849.820007 
	C588.131226,681.565674 472.814026,513.643372 357.000793,344.998749 
	C361.059937,344.998749 364.315796,344.998749 368.061432,344.998627 
M507.541565,466.950409 
	C537.581543,509.896454 567.637756,552.831177 597.658325,595.790771 
	C675.418274,707.065491 753.161438,818.351990 830.913391,929.632324 
	C892.180298,1017.318909 953.469910,1104.989624 1014.633362,1192.748291 
	C1016.695801,1195.707520 1018.679443,1196.783447 1022.233459,1196.770752 
	C1059.060547,1196.638672 1095.888550,1196.696289 1132.716187,1196.685913 
	C1134.100708,1196.685547 1135.485229,1196.529785 1137.510742,1196.407837 
	C1132.475952,1189.170654 1127.853394,1182.499390 1123.204224,1175.846680 
	C1070.980957,1101.117188 1018.739441,1026.400269 966.531555,951.660034 
	C919.944153,884.966003 873.409851,818.234802 826.820190,751.542297 
	C787.189270,694.811218 747.508850,638.114624 707.857666,581.397644 
	C667.345032,523.448364 626.821472,465.506714 586.398071,407.495270 
	C584.566772,404.867249 582.732239,403.910919 579.537109,403.921722 
	C542.709595,404.046204 505.881561,404.003632 469.053650,404.005432 
	C467.473602,404.005524 465.893585,404.005432 463.600800,404.005432 
	C478.429077,425.258148 492.771362,445.814270 507.541565,466.950409 
z"/>
<path fill="#010101" opacity="1.000000" stroke="none" 
	d="
M507.327606,466.660400 
	C492.771362,445.814270 478.429077,425.258148 463.600800,404.005432 
	C465.893585,404.005432 467.473602,404.005524 469.053650,404.005432 
	C505.881561,404.003632 542.709595,404.046204 579.537109,403.921722 
	C582.732239,403.910919 584.566772,404.867249 586.398071,407.495270 
	C626.821472,465.506714 667.345032,523.448364 707.857666,581.397644 
	C747.508850,638.114624 787.189270,694.811218 826.820190,751.542297 
	C873.409851,818.234802 919.944153,884.966003 966.531555,951.660034 
	C1018.739441,1026.400269 1070.980957,1101.117188 1123.204224,1175.846680 
	C1127.853394,1182.499390 1132.475952,1189.170654 1137.510742,1196.407837 
	C1135.485229,1196.529785 1134.100708,1196.685547 1132.716187,1196.685913 
	C1095.888550,1196.696289 1059.060547,1196.638672 1022.233459,1196.770752 
	C1018.679443,1196.783447 1016.695801,1195.707520 1014.633362,1192.748291 
	C953.469910,1104.989624 892.180298,1017.318909 830.913391,929.632324 
	C753.161438,818.351990 675.418274,707.065491 597.658325,595.790771 
	C567.637756,552.831177 537.581543,509.896454 507.327606,466.660400 
z"/>
</svg>